<?xml version="1.0" encoding="UTF-8" standalone="no"?>
<!-- Created with Inkscape (http://www.inkscape.org/) -->

<svg
   xmlns:dc="http://purl.org/dc/elements/1.1/"
   xmlns:cc="http://creativecommons.org/ns#"
   xmlns:rdf="http://www.w3.org/1999/02/22-rdf-syntax-ns#"
   xmlns:svg="http://www.w3.org/2000/svg"
   xmlns="http://www.w3.org/2000/svg"
   xmlns:sodipodi="http://sodipodi.sourceforge.net/DTD/sodipodi-0.dtd"
   xmlns:inkscape="http://www.inkscape.org/namespaces/inkscape"
   width="581.63733mm"
   height="581.63599mm"
   viewBox="0 0 581.63733 581.63599"
   version="1.1"
   id="svg3806"
   inkscape:version="0.92.2 (5c3e80d, 2017-08-06)"
   sodipodi:docname="logo.svg">
  <defs
     id="defs3800" />
  <sodipodi:namedview
     id="base"
     pagecolor="#ffffff"
     bordercolor="#666666"
     borderopacity="1.0"
     inkscape:pageopacity="0.0"
     inkscape:pageshadow="2"
     inkscape:zoom="0.35"
     inkscape:cx="1213.6001"
     inkscape:cy="1033.5951"
     inkscape:document-units="mm"
     inkscape:current-layer="layer1"
     showgrid="false"
     fit-margin-top="0"
     fit-margin-left="0"
     fit-margin-right="0"
     fit-margin-bottom="0"
     inkscape:window-width="1920"
     inkscape:window-height="1017"
     inkscape:window-x="-8"
     inkscape:window-y="-8"
     inkscape:window-maximized="1" />
  <metadata
     id="metadata3803">
    <rdf:RDF>
      <cc:Work
         rdf:about="">
        <dc:format>image/svg+xml</dc:format>
        <dc:type
           rdf:resource="http://purl.org/dc/dcmitype/StillImage" />
        <dc:title></dc:title>
      </cc:Work>
    </rdf:RDF>
  </metadata>
  <g
     inkscape:label="Layer 1"
     inkscape:groupmode="layer"
     id="layer1"
     transform="translate(215.26503,38.378259)">
    <g
       id="g3819"
       transform="translate(-111.88095,-3.0238094)">
      <path
         style="fill:#fefefe;stroke-width:0.26458332"
         d="M -103.30088,255.42262 V -35.35445 H 187.47619 478.25326 V 255.42262 546.19969 H 187.47619 -103.30088 Z"
         id="path3833"
         inkscape:connector-curvature="0" />
      <path
         style="fill:#f7b618;stroke-width:0.26458332"
         d="M 151.49286,545.78847 C 100.84485,542.87179 50.27961,524.6829 8.9128806,494.50082 -9.4304906,481.11709 -26.104479,465.51932 -40.376222,448.39305 -78.214223,402.98696 -100.00307,347.412 -103.05216,288.53078 c -0.16101,-3.10931 -0.19355,-5.75191 -0.0723,-5.87243 0.12125,-0.12052 7.959517,-0.46334 17.418371,-0.76179 15.124323,-0.47723 17.232775,-0.49569 17.487031,-0.15316 0.163693,0.2205 0.365493,2.33219 0.465167,4.86761 0.221639,5.63782 1.005271,14.06697 1.897205,20.40734 5.604653,39.84098 21.201025,77.48222 45.371809,109.50307 7.185874,9.51969 13.1777205,16.39486 21.8225651,25.03969 8.6737559,8.67376 15.6285239,14.73293 25.0305899,21.80728 28.635964,21.54639 61.414496,36.24252 96.192892,43.12764 11.79184,2.33444 27.9804,4.24735 35.95872,4.24905 1.29084,2.6e-4 2.30826,0.13096 2.57829,0.33117 0.41813,0.31004 0.4131,1.38235 -0.0805,17.13177 -0.28958,9.24058 -0.58887,17.06894 -0.6651,17.39636 -0.16381,0.70363 0.0758,0.69866 -8.85976,0.18409 z m 25.66458,-1.15088 c 0,-2.00126 -0.72094,-25.97444 -0.90559,-30.11302 -0.1669,-3.74108 -0.13912,-3.77807 2.84271,-3.78166 1.19015,-0.003 3.89033,-0.12229 6.00038,-0.26853 49.81948,-3.45318 96.53135,-22.15507 135.06979,-54.07747 8.47195,-7.01754 19.50098,-17.72158 26.5168,-25.73546 35.61167,-40.67771 56.02377,-90.71626 58.78891,-144.11597 0.13467,-2.60051 0.34798,-4.83135 0.47402,-4.9574 0.22974,-0.22973 34.00354,0.71163 34.71315,0.96756 0.65958,0.23786 0.0124,11.59454 -1.31844,23.13781 -6.19414,53.72396 -28.48653,104.60905 -63.86756,145.78541 -6.99558,8.14144 -17.34706,18.70803 -25.01498,25.53478 -33.56866,29.88617 -72.89802,50.7144 -115.91078,61.38463 -16.4131,4.07162 -37.07709,7.09051 -52.71034,7.70069 l -4.67807,0.18259 z M 5.0361899,412.51897 c -0.069017,-0.1819 -0.095046,-62.60042 -0.057843,-138.70781 l 0.067643,-138.37708 18.1901031,-0.068 18.190104,-0.068 V 274.07392 412.8497 h -18.13226 c -14.2624968,0 -18.1590444,-0.0706 -18.2577471,-0.33073 z M 108.89494,274.07757 V 135.30179 h 22.56804 22.56804 l 70.61783,110.66198 c 38.83983,60.86408 71.13725,111.47821 71.77209,112.47585 0.63484,0.99761 1.21605,1.75207 1.29156,1.67653 0.0755,-0.0755 -0.0212,-3.39209 -0.2146,-7.37013 -0.28012,-5.75685 -0.35192,-28.66715 -0.35192,-112.27236 V 135.43408 l 18.1901,-0.068 18.1901,-0.068 V 274.07392 412.8497 H 312.24069 290.9552 l -0.64664,-0.8599 C 289.16135,410.46427 148.2711,192.13843 146.85101,189.68563 c -0.75446,-1.3031 -1.50657,-2.41422 -1.67136,-2.46915 -0.22009,-0.0734 -0.24718,0.97686 -0.10206,3.95678 0.10866,2.23116 0.19756,52.99134 0.19756,112.8004 V 412.7174 l -18.1901,0.068 -18.19011,0.068 z M -84.383173,266.2554 c -7.567083,-0.25744 -14.937912,-0.47842 -16.379617,-0.49106 l -2.62129,-0.023 0.17479,-4.63325 c 0.49189,-13.03856 2.64797,-29.81068 5.628678,-43.7855 9.932013,-46.56547 31.338613,-88.76084 63.257014,-124.688331 4.125968,-4.644207 16.993065,-17.523025 21.642506,-21.662219 41.43964,-36.891903 91.982238,-60.020721 146.446872,-67.0156033 12.68611,-1.6292749 26.30233,-2.4863556 26.59345,-1.6739393 0.19068,0.5321247 1.19055,34.0146466 1.02838,34.4372576 -0.16489,0.429699 -0.78136,0.499779 -8.30725,0.944351 -19.81385,1.17045 -39.2317,4.963773 -58.869791,11.50036 C 75.810633,55.28896 59.491139,62.955753 43.172597,73.141814 21.682891,86.55572 1.673275,104.22318 -14.823699,124.34956 c -24.12684,29.43485 -41.179229,65.47545 -48.632031,102.78487 -1.387901,6.94796 -2.354225,13.03385 -3.075376,19.36861 -0.658715,5.78633 -1.314969,14.46739 -1.315331,17.39948 -1.72e-4,1.40634 -0.120396,2.3823 -0.317778,2.57968 -0.174625,0.17463 -0.799703,0.30036 -1.389062,0.2794 -0.58936,-0.0209 -7.262813,-0.24876 -14.829896,-0.5062 z m 490.450933,0.31621 c -0.25337,-0.16254 -0.41754,-1.50612 -0.58973,-4.82719 -1.68249,-32.44602 -9.6125,-63.05486 -23.81284,-91.9145 -5.17438,-10.51601 -8.89445,-16.99439 -15.33435,-26.70423 -5.87669,-8.86066 -12.20028,-17.14286 -19.47265,-25.50389 C 342.50903,112.62157 330.27723,100.38978 325.277,96.040617 298.25842,72.54003 267.85594,55.884833 234.43973,46.277781 c -16.19732,-4.656677 -33.41518,-7.659677 -49.34479,-8.606322 -7.82989,-0.465304 -8.68254,-0.550706 -8.80983,-0.882395 -0.1461,-0.380736 0.83476,-33.4082274 1.01693,-34.2419532 0.12284,-0.562229 0.25844,-0.595167 2.44014,-0.5926958 4.26784,0.00484 14.86556,0.8665263 22.94755,1.8658469 13.81755,1.7085097 28.63157,4.7366817 41.82859,8.5502771 39.1156,11.30341 74.73029,31.02449 105.8089,58.590048 4.43786,3.936203 17.67481,17.173151 21.61101,21.610999 11.84381,13.353224 21.72631,26.786434 30.61002,41.607874 19.75686,32.96216 32.15626,69.26204 36.66971,107.35254 0.8858,7.47535 1.42745,13.88258 1.63714,19.36538 l 0.17396,4.54874 -0.63635,0.13991 c -0.34996,0.0769 -7.12523,0.32052 -15.05611,0.54126 -7.93089,0.22074 -15.43183,0.4617 -16.66875,0.53544 -1.23693,0.0737 -2.40697,0.0327 -2.60009,-0.0911 z m 64.28962,-80.29532 c -0.13642,-0.16873 -0.7887,-2.2532 -1.44952,-4.63214 -0.66082,-2.37894 -1.26524,-4.38912 -1.34318,-4.46707 -0.0779,-0.0779 -6.55762,1.66011 -14.39929,3.86233 -7.84167,2.20223 -14.44657,4.00405 -14.67757,4.00405 -0.23099,0 -0.49954,-0.1287 -0.59675,-0.286 -0.4073,-0.65903 -2.14468,-7.37072 -1.97784,-7.64067 0.10007,-0.16193 6.66121,-2.11444 14.58027,-4.33891 10.75229,-3.02033 14.4187,-4.1504 14.47889,-4.46274 0.0444,-0.23004 -0.46661,-2.35368 -1.13543,-4.7192 -0.66884,-2.36552 -1.11498,-4.40202 -0.99145,-4.52556 0.28591,-0.28591 6.4683,-2.07276 7.17164,-2.07276 0.29014,0 0.59135,0.20836 0.66932,0.46303 0.86177,2.8144 7.08686,25.31289 7.20529,26.04115 l 0.15806,0.97187 -1.81652,0.52815 c -4.93898,1.436 -5.62504,1.5848 -5.87592,1.27447 z m -39.64736,-25.79596 c -0.36648,-0.23647 -3.25676,-6.81432 -3.25676,-7.41188 0,-0.26048 3.27422,-5.58414 7.27604,-11.83035 4.00183,-6.24622 7.27604,-11.4431 7.27604,-11.54864 0,-0.26752 0.18662,-0.3468 -10.844,4.60682 -5.45488,2.44967 -10.04337,4.40582 -10.19664,4.34701 -0.40923,-0.15703 -3.36987,-6.89509 -3.26125,-7.42225 0.12374,-0.60073 34.59114,-16.14204 35.11338,-15.83258 0.42693,0.25298 3.4571,6.86334 3.46829,7.5661 0.004,0.26679 -3.12801,5.32695 -6.96061,11.2448 -3.83257,5.91785 -7.1203,11.04503 -7.30607,11.39375 -0.30467,0.57194 -0.28945,0.61994 0.15531,0.49028 0.27117,-0.0791 4.87876,-2.12054 10.23906,-4.53663 5.36033,-2.41609 9.9005,-4.39288 10.08928,-4.39288 0.39515,0 3.66458,7.07174 3.48535,7.53878 -0.0907,0.23644 -20.84901,9.716 -33.52874,15.31138 -0.81224,0.35844 -1.59917,0.57277 -1.74868,0.47629 z m -16.4333,-43.81599 c -5.53561,-1.05065 -10.45993,-5.13255 -13.26523,-10.99588 -1.81369,-3.79075 -2.25263,-7.128285 -1.45428,-11.057508 1.19335,-5.873176 5.65833,-11.140974 12.15334,-14.338551 3.74698,-1.844675 5.40309,-2.238137 9.39271,-2.231541 2.9119,0.0048 3.55688,0.09212 5.39488,0.730237 2.48814,0.863828 3.74947,1.578785 5.77588,3.273983 2.93741,2.457281 5.59478,6.523183 6.71822,10.279295 0.57804,1.932517 0.64485,6.240383 0.12899,8.317005 -1.19973,4.82973 -4.49324,9.15113 -9.45899,12.41108 -4.89138,3.21115 -10.52668,4.53408 -15.38552,3.61188 z m 5.63592,-8.66555 c 1.54789,-0.38417 4.52662,-2.01212 6.34825,-3.46946 3.22493,-2.58 4.73871,-5.222008 4.74541,-8.282171 0.004,-1.642848 -0.1207,-2.133291 -0.98314,-3.878276 -2.28322,-4.619804 -6.55084,-6.614181 -11.43246,-5.342686 -2.44044,0.635654 -5.03925,2.171655 -7.14415,4.222472 -2.10724,2.053111 -3.13663,3.859033 -3.58428,6.288138 -0.52716,2.860443 0.73589,5.962863 3.46789,8.518333 2.43398,2.27672 4.94726,2.84589 8.58248,1.94365 z M 384.78468,83.505286 c -1.56186,-1.566724 -2.83975,-2.982393 -2.83975,-3.145927 0,-0.163536 2.98754,-3.194023 6.63901,-6.734415 3.65143,-3.540395 6.50634,-6.481297 6.3442,-6.535341 -0.16211,-0.05404 -3.41757,1.038474 -7.23429,2.427814 -3.81675,1.38934 -8.1095,2.949099 -9.53945,3.466129 l -2.59992,0.940054 -1.69955,-1.632008 c -0.93478,-0.897604 -1.69958,-1.760318 -1.69958,-1.917139 0,-0.156824 1.67582,-4.546222 3.72403,-9.754214 2.0482,-5.207994 3.68531,-9.584284 3.63803,-9.725093 -0.0473,-0.140806 -3.08219,2.660118 -6.74415,6.224278 -3.662,3.564159 -6.83858,6.480288 -7.05909,6.480288 -0.34811,0 -5.482,-5.22301 -5.66536,-5.763712 -0.0601,-0.177207 21.82662,-21.648213 26.10628,-25.610409 l 1.6587,-1.535678 3.01871,3.049613 c 1.97606,1.996327 3.01868,3.247054 3.01868,3.621262 0,0.314407 -2.04129,5.662176 -4.5362,11.883932 -4.57417,11.40701 -4.97374,12.503311 -4.55663,12.502419 0.1261,-2.64e-4 5.68995,-1.961742 12.36406,-4.358827 9.07423,-3.259103 12.25177,-4.295735 12.59858,-4.110128 0.85299,0.456507 5.606,5.794582 5.51696,6.196095 -0.0821,0.370485 -27.17916,26.878234 -27.47671,26.87917 -0.0752,2.36e-4 -1.41467,-1.281438 -2.97656,-2.848163 z m -32.69882,-31.678431 -3.77926,-2.793883 0.15761,-1.381734 c 0.60431,-5.297781 1.19235,-13.200139 1.04786,-14.081733 -0.0954,-0.582083 -0.33189,-1.368076 -0.52552,-1.746647 -0.47011,-0.919085 -1.68232,-1.703427 -2.16095,-1.398211 -0.20222,0.128944 -2.11797,2.614353 -4.25723,5.523134 -2.13926,2.908782 -4.07146,5.323726 -4.29379,5.366541 -0.64111,0.123468 -6.64504,-4.410117 -6.54891,-4.945107 0.0989,-0.550564 22.44254,-30.9778335 22.74792,-30.9778335 0.4803,0 11.29234,8.1489655 12.59493,9.4927205 0.8114,0.837049 1.80803,2.274361 2.38125,3.43417 0.92999,1.881706 0.98579,2.137693 0.98579,4.521887 0,2.370384 -0.061,2.655046 -0.98296,4.585809 -1.8874,3.95265 -5.35855,6.472007 -9.29584,6.746925 -1.04063,0.07266 -1.97951,0.264279 -2.08643,0.425817 -0.10691,0.161542 -0.20544,1.18668 -0.21896,2.278087 -0.0135,1.091406 -0.28324,5.49543 -0.59937,9.78672 -0.47879,6.499291 -0.64259,7.81528 -0.98083,7.879786 -0.22334,0.04259 -2.10672,-1.179812 -4.18531,-2.716448 z m 7.52337,-26.075895 c 1.85899,-1.14893 2.45226,-3.23324 1.40338,-4.930402 -0.59674,-0.965531 -3.77534,-3.522927 -4.37867,-3.522927 -0.38404,0 -4.45463,5.387099 -4.45463,5.895353 0,0.342794 2.252,2.107623 3.43958,2.695506 1.1498,0.569172 2.94709,0.507227 3.99034,-0.13753 z m -45.3803,0.832323 c -5.15646,-2.87161 -9.48354,-5.392581 -9.61575,-5.602157 -0.1737,-0.275368 2.29283,-4.966708 8.89333,-16.9150847 5.02351,-9.0937182 9.30455,-16.6422243 9.51344,-16.7744563 0.27305,-0.172871 2.99998,1.202419 9.70537,4.8947922 5.12908,2.8243661 9.38493,5.2843692 9.45745,5.4666724 0.15266,0.3837992 -3.11875,6.4199952 -3.66234,6.7574606 -0.2482,0.1541013 -2.13185,-0.7483501 -5.91976,-2.8361374 -3.05562,-1.68418658 -5.67611,-3.0621577 -5.82329,-3.0621577 -0.35825,0 -3.41218,5.5368188 -3.18262,5.7701469 0.099,0.1006395 2.4634,1.4494218 5.25417,2.9972977 2.79077,1.5478733 5.10829,2.9838733 5.15004,3.1911053 0.0693,0.344109 -2.74286,5.658437 -3.43665,6.494398 -0.38372,0.462365 -0.32171,0.489588 -5.96754,-2.619258 -2.65671,-1.462897 -4.99401,-2.597018 -5.19404,-2.520267 -0.46,0.176519 -3.41106,5.646816 -3.27176,6.064752 0.0569,0.170823 2.71468,1.754717 5.90609,3.519765 4.1213,2.279335 5.82279,3.355885 5.87232,3.715515 0.10834,0.786664 -3.22086,6.583089 -3.81098,6.635236 -0.27065,0.02392 -4.71101,-2.306013 -9.86748,-5.177623 z M 285.6366,12.819511 c -7.71041,-3.1580881 -8.33064,-3.4599433 -8.28458,-4.0318322 0.0585,-0.725752 13.95479,-34.8369278 14.35505,-35.2371748 0.18587,-0.185867 1.42213,0.18595 3.91364,1.177043 2.90935,1.157321 3.65805,1.559418 3.72197,1.998985 0.044,0.302637 -2.43065,6.70211 -5.49931,14.221051 -3.06864,7.5189412 -5.51712,13.7714764 -5.44108,13.8945208 0.076,0.1230472 2.87488,1.3336799 6.21967,2.6902965 3.34475,1.3566166 6.13055,2.5947267 6.19064,2.7513547 0.0601,0.15663 -0.38944,1.530937 -0.99896,3.054016 l -1.10826,2.769235 -2.3672,0.06308 -2.3672,0.06308 z M 259.3457,4.2032436 c -4.67985,-0.9721347 -7.98232,-2.6320087 -10.76889,-5.4126101 -2.18027,-2.1755893 -3.33078,-3.9799999 -4.20923,-6.6016502 -1.70042,-5.0746653 -0.97821,-11.7267053 1.87003,-17.2246833 2.67739,-5.168131 7.41632,-8.831866 12.88756,-9.963532 2.4715,-0.511198 7.56526,-0.362979 9.94796,0.289467 3.48284,0.953707 7.17561,2.775092 8.80682,4.343819 l 0.57774,0.555596 -0.91824,3.511804 c -1.19602,4.574243 -1.41462,5.231595 -1.73971,5.231595 -0.14896,0 -1.10546,-0.77274 -2.12556,-1.7172 -2.20017,-2.037012 -3.91057,-3.055693 -6.42612,-3.82724 -4.32919,-1.327812 -8.24016,-0.389034 -11.12903,2.671382 -3.42694,3.630405 -4.79574,10.302556 -2.9436,14.348182 2.31256,5.0513221 8.69852,7.2528008 15.56356,5.3653481 1.4021,-0.38549 2.6225,-0.7008892 2.71198,-0.7008892 0.33649,0 0.10959,1.3005117 -0.85402,4.89479148 -0.91668,3.41925522 -1.05313,3.73322832 -1.77409,4.08201002 -1.12355,0.5435335 -7.13163,0.6410404 -9.47716,0.1538102 z"
         id="path3831"
         inkscape:connector-curvature="0" />
      <path
         style="fill:#2ba1da;stroke-width:0.26458332"
         d="M 151.49286,545.78847 C 100.84485,542.87179 50.27961,524.6829 8.9128806,494.50082 -9.4304906,481.11709 -26.104479,465.51932 -40.376222,448.39305 -78.214223,402.98696 -100.00307,347.412 -103.05216,288.53078 c -0.16101,-3.10931 -0.19355,-5.75191 -0.0723,-5.87243 0.12125,-0.12052 7.959517,-0.46334 17.418371,-0.76179 15.124323,-0.47723 17.232775,-0.49569 17.487031,-0.15316 0.163693,0.2205 0.365493,2.33219 0.465167,4.86761 0.221639,5.63782 1.005271,14.06697 1.897205,20.40734 5.604653,39.84098 21.201025,77.48222 45.371809,109.50307 7.185874,9.51969 13.1777205,16.39486 21.8225651,25.03969 8.6737559,8.67376 15.6285239,14.73293 25.0305899,21.80728 28.635964,21.54639 61.414496,36.24252 96.192892,43.12764 11.79184,2.33444 27.9804,4.24735 35.95872,4.24905 1.29084,2.6e-4 2.30826,0.13096 2.57829,0.33117 0.41813,0.31004 0.4131,1.38235 -0.0805,17.13177 -0.28958,9.24058 -0.58887,17.06894 -0.6651,17.39636 -0.16381,0.70363 0.0758,0.69866 -8.85976,0.18409 z M 5.0361899,412.51897 c -0.069017,-0.1819 -0.095046,-62.60042 -0.057843,-138.70781 l 0.067643,-138.37708 18.1901031,-0.068 18.190104,-0.068 V 274.07392 412.8497 h -18.13226 c -14.2624968,0 -18.1590444,-0.0706 -18.2577471,-0.33073 z M 108.89494,274.07757 V 135.30179 h 22.56804 22.56804 l 70.61783,110.66198 c 38.83983,60.86408 71.13725,111.47821 71.77209,112.47585 0.63484,0.99761 1.21605,1.75207 1.29156,1.67653 0.0755,-0.0755 -0.0212,-3.39209 -0.2146,-7.37013 -0.28012,-5.75685 -0.35192,-28.66715 -0.35192,-112.27236 V 135.43408 l 18.1901,-0.068 18.1901,-0.068 V 274.07392 412.8497 H 312.24069 290.9552 l -0.64664,-0.8599 C 289.16135,410.46427 148.2711,192.13843 146.85101,189.68563 c -0.75446,-1.3031 -1.50657,-2.41422 -1.67136,-2.46915 -0.22009,-0.0734 -0.24718,0.97686 -0.10206,3.95678 0.10866,2.23116 0.19756,52.99134 0.19756,112.8004 V 412.7174 l -18.1901,0.068 -18.19011,0.068 z m 297.17282,-7.50596 c -0.25337,-0.16254 -0.41754,-1.50612 -0.58973,-4.82719 -1.68249,-32.44602 -9.6125,-63.05486 -23.81284,-91.9145 -5.17438,-10.51601 -8.89445,-16.99439 -15.33435,-26.70423 -5.87669,-8.86066 -12.20028,-17.14286 -19.47265,-25.50389 C 342.50903,112.62157 330.27723,100.38978 325.277,96.040617 298.25842,72.54003 267.85594,55.884833 234.43973,46.277781 c -16.19732,-4.656677 -33.41518,-7.659677 -49.34479,-8.606322 -7.82989,-0.465304 -8.68254,-0.550706 -8.80983,-0.882395 -0.1461,-0.380736 0.83476,-33.4082274 1.01693,-34.2419532 0.12284,-0.562229 0.25844,-0.595167 2.44014,-0.5926958 4.26784,0.00484 14.86556,0.8665263 22.94755,1.8658469 13.81755,1.7085097 28.63157,4.7366817 41.82859,8.5502771 39.1156,11.30341 74.73029,31.02449 105.8089,58.590048 4.43786,3.936203 17.67481,17.173151 21.61101,21.610999 11.84381,13.353224 21.72631,26.786434 30.61002,41.607874 19.75686,32.96216 32.15626,69.26204 36.66971,107.35254 0.8858,7.47535 1.42745,13.88258 1.63714,19.36538 l 0.17396,4.54874 -0.63635,0.13991 c -0.34996,0.0769 -7.12523,0.32052 -15.05611,0.54126 -7.93089,0.22074 -15.43183,0.4617 -16.66875,0.53544 -1.23693,0.0737 -2.40697,0.0327 -2.60009,-0.0911 z m -494.684266,-0.57709 c -7.567083,-0.25947 -13.978684,-0.48212 -14.247994,-0.49477 -0.45924,-0.0214 -0.47887,-0.23254 -0.31596,-3.3964 2.21515,-43.01837 13.274886,-82.40718 33.503895,-119.32277 14.969211,-27.31706 35.862327,-53.229972 59.590254,-73.907437 C 15.382707,46.678421 44.981752,29.276707 76.711214,17.843599 101.52341,8.9029974 126.88338,3.8002091 154.4904,2.1933099 c 4.00273,-0.2329814 5.31994,-0.2319522 5.55625,0.00434 0.45872,0.4586737 1.44743,34.3848231 1.00997,34.6551921 -0.17292,0.106871 -2.85256,0.338413 -5.95474,0.514541 -28.87733,1.639512 -56.698279,8.415403 -83.258388,20.277877 -39.101954,17.464008 -73.4209618,46.06523 -98.275353,81.90199 -21.377052,30.8229 -35.174119,66.94859 -39.960355,104.63058 -0.575392,4.53006 -1.091544,10.51642 -1.653915,19.18229 l -0.197459,3.04271 -3.307291,0.0317 c -1.819011,0.0175 -9.498542,-0.18055 -17.065625,-0.44006 z M 470.35738,186.27629 c -0.13642,-0.16873 -0.7887,-2.2532 -1.44952,-4.63214 -0.66082,-2.37894 -1.26524,-4.38912 -1.34318,-4.46707 -0.0779,-0.0779 -6.55762,1.66011 -14.39929,3.86233 -7.84167,2.20223 -14.44657,4.00405 -14.67757,4.00405 -0.23099,0 -0.49954,-0.1287 -0.59675,-0.286 -0.4073,-0.65903 -2.14468,-7.37072 -1.97784,-7.64067 0.10007,-0.16193 6.66121,-2.11444 14.58027,-4.33891 10.75229,-3.02033 14.4187,-4.1504 14.47889,-4.46274 0.0444,-0.23004 -0.46661,-2.35368 -1.13543,-4.7192 -0.66884,-2.36552 -1.11498,-4.40202 -0.99145,-4.52556 0.28591,-0.28591 6.4683,-2.07276 7.17164,-2.07276 0.29014,0 0.59135,0.20836 0.66932,0.46303 0.86177,2.8144 7.08686,25.31289 7.20529,26.04115 l 0.15806,0.97187 -1.81652,0.52815 c -4.93898,1.436 -5.62504,1.5848 -5.87592,1.27447 z m -39.64736,-25.79596 c -0.36648,-0.23647 -3.25676,-6.81432 -3.25676,-7.41188 0,-0.26048 3.27422,-5.58414 7.27604,-11.83035 4.00183,-6.24622 7.27604,-11.4431 7.27604,-11.54864 0,-0.26752 0.18662,-0.3468 -10.844,4.60682 -5.45488,2.44967 -10.04337,4.40582 -10.19664,4.34701 -0.40923,-0.15703 -3.36987,-6.89509 -3.26125,-7.42225 0.12374,-0.60073 34.59114,-16.14204 35.11338,-15.83258 0.42693,0.25298 3.4571,6.86334 3.46829,7.5661 0.004,0.26679 -3.12801,5.32695 -6.96061,11.2448 -3.83257,5.91785 -7.1203,11.04503 -7.30607,11.39375 -0.30467,0.57194 -0.28945,0.61994 0.15531,0.49028 0.27117,-0.0791 4.87876,-2.12054 10.23906,-4.53663 5.36033,-2.41609 9.9005,-4.39288 10.08928,-4.39288 0.39515,0 3.66458,7.07174 3.48535,7.53878 -0.0907,0.23644 -20.84901,9.716 -33.52874,15.31138 -0.81224,0.35844 -1.59917,0.57277 -1.74868,0.47629 z m -16.4333,-43.81599 c -5.53561,-1.05065 -10.45993,-5.13255 -13.26523,-10.99588 -1.81369,-3.79075 -2.25263,-7.128285 -1.45428,-11.057508 1.19335,-5.873176 5.65833,-11.140974 12.15334,-14.338551 3.74698,-1.844675 5.40309,-2.238137 9.39271,-2.231541 2.9119,0.0048 3.55688,0.09212 5.39488,0.730237 2.48814,0.863828 3.74947,1.578785 5.77588,3.273983 2.93741,2.457281 5.59478,6.523183 6.71822,10.279295 0.57804,1.932517 0.64485,6.240383 0.12899,8.317005 -1.19973,4.82973 -4.49324,9.15113 -9.45899,12.41108 -4.89138,3.21115 -10.52668,4.53408 -15.38552,3.61188 z m 5.63592,-8.66555 c 1.54789,-0.38417 4.52662,-2.01212 6.34825,-3.46946 3.22493,-2.58 4.73871,-5.222008 4.74541,-8.282171 0.004,-1.642848 -0.1207,-2.133291 -0.98314,-3.878276 -2.28322,-4.619804 -6.55084,-6.614181 -11.43246,-5.342686 -2.44044,0.635654 -5.03925,2.171655 -7.14415,4.222472 -2.10724,2.053111 -3.13663,3.859033 -3.58428,6.288138 -0.52716,2.860443 0.73589,5.962863 3.46789,8.518333 2.43398,2.27672 4.94726,2.84589 8.58248,1.94365 z M 384.78468,83.505286 c -1.56186,-1.566724 -2.83975,-2.982393 -2.83975,-3.145927 0,-0.163536 2.98754,-3.194023 6.63901,-6.734415 3.65143,-3.540395 6.50634,-6.481297 6.3442,-6.535341 -0.16211,-0.05404 -3.41757,1.038474 -7.23429,2.427814 -3.81675,1.38934 -8.1095,2.949099 -9.53945,3.466129 l -2.59992,0.940054 -1.69955,-1.632008 c -0.93478,-0.897604 -1.69958,-1.760318 -1.69958,-1.917139 0,-0.156824 1.67582,-4.546222 3.72403,-9.754214 2.0482,-5.207994 3.68531,-9.584284 3.63803,-9.725093 -0.0473,-0.140806 -3.08219,2.660118 -6.74415,6.224278 -3.662,3.564159 -6.83858,6.480288 -7.05909,6.480288 -0.34811,0 -5.482,-5.22301 -5.66536,-5.763712 -0.0601,-0.177207 21.82662,-21.648213 26.10628,-25.610409 l 1.6587,-1.535678 3.01871,3.049613 c 1.97606,1.996327 3.01868,3.247054 3.01868,3.621262 0,0.314407 -2.04129,5.662176 -4.5362,11.883932 -4.57417,11.40701 -4.97374,12.503311 -4.55663,12.502419 0.1261,-2.64e-4 5.68995,-1.961742 12.36406,-4.358827 9.07423,-3.259103 12.25177,-4.295735 12.59858,-4.110128 0.85299,0.456507 5.606,5.794582 5.51696,6.196095 -0.0821,0.370485 -27.17916,26.878234 -27.47671,26.87917 -0.0752,2.36e-4 -1.41467,-1.281438 -2.97656,-2.848163 z m -32.69882,-31.678431 -3.77926,-2.793883 0.15761,-1.381734 c 0.60431,-5.297781 1.19235,-13.200139 1.04786,-14.081733 -0.0954,-0.582083 -0.33189,-1.368076 -0.52552,-1.746647 -0.47011,-0.919085 -1.68232,-1.703427 -2.16095,-1.398211 -0.20222,0.128944 -2.11797,2.614353 -4.25723,5.523134 -2.13926,2.908782 -4.07146,5.323726 -4.29379,5.366541 -0.64111,0.123468 -6.64504,-4.410117 -6.54891,-4.945107 0.0989,-0.550564 22.44254,-30.9778335 22.74792,-30.9778335 0.4803,0 11.29234,8.1489655 12.59493,9.4927205 0.8114,0.837049 1.80803,2.274361 2.38125,3.43417 0.92999,1.881706 0.98579,2.137693 0.98579,4.521887 0,2.370384 -0.061,2.655046 -0.98296,4.585809 -1.8874,3.95265 -5.35855,6.472007 -9.29584,6.746925 -1.04063,0.07266 -1.97951,0.264279 -2.08643,0.425817 -0.10691,0.161542 -0.20544,1.18668 -0.21896,2.278087 -0.0135,1.091406 -0.28324,5.49543 -0.59937,9.78672 -0.47879,6.499291 -0.64259,7.81528 -0.98083,7.879786 -0.22334,0.04259 -2.10672,-1.179812 -4.18531,-2.716448 z m 7.52337,-26.075895 c 1.85899,-1.14893 2.45226,-3.23324 1.40338,-4.930402 -0.59674,-0.965531 -3.77534,-3.522927 -4.37867,-3.522927 -0.38404,0 -4.45463,5.387099 -4.45463,5.895353 0,0.342794 2.252,2.107623 3.43958,2.695506 1.1498,0.569172 2.94709,0.507227 3.99034,-0.13753 z m -45.3803,0.832323 c -5.15646,-2.87161 -9.48354,-5.392581 -9.61575,-5.602157 -0.1737,-0.275368 2.29283,-4.966708 8.89333,-16.9150847 5.02351,-9.0937182 9.30455,-16.6422243 9.51344,-16.7744563 0.27305,-0.172871 2.99998,1.202419 9.70537,4.8947922 5.12908,2.8243661 9.38493,5.2843692 9.45745,5.4666724 0.15266,0.3837992 -3.11875,6.4199952 -3.66234,6.7574606 -0.2482,0.1541013 -2.13185,-0.7483501 -5.91976,-2.8361374 -3.05562,-1.68418658 -5.67611,-3.0621577 -5.82329,-3.0621577 -0.35825,0 -3.41218,5.5368188 -3.18262,5.7701469 0.099,0.1006395 2.4634,1.4494218 5.25417,2.9972977 2.79077,1.5478733 5.10829,2.9838733 5.15004,3.1911053 0.0693,0.344109 -2.74286,5.658437 -3.43665,6.494398 -0.38372,0.462365 -0.32171,0.489588 -5.96754,-2.619258 -2.65671,-1.462897 -4.99401,-2.597018 -5.19404,-2.520267 -0.46,0.176519 -3.41106,5.646816 -3.27176,6.064752 0.0569,0.170823 2.71468,1.754717 5.90609,3.519765 4.1213,2.279335 5.82279,3.355885 5.87232,3.715515 0.10834,0.786664 -3.22086,6.583089 -3.81098,6.635236 -0.27065,0.02392 -4.71101,-2.306013 -9.86748,-5.177623 z M 285.6366,12.819511 c -7.71041,-3.1580881 -8.33064,-3.4599433 -8.28458,-4.0318322 0.0585,-0.725752 13.95479,-34.8369278 14.35505,-35.2371748 0.18587,-0.185867 1.42213,0.18595 3.91364,1.177043 2.90935,1.157321 3.65805,1.559418 3.72197,1.998985 0.044,0.302637 -2.43065,6.70211 -5.49931,14.221051 -3.06864,7.5189412 -5.51712,13.7714764 -5.44108,13.8945208 0.076,0.1230472 2.87488,1.3336799 6.21967,2.6902965 3.34475,1.3566166 6.13055,2.5947267 6.19064,2.7513547 0.0601,0.15663 -0.38944,1.530937 -0.99896,3.054016 l -1.10826,2.769235 -2.3672,0.06308 -2.3672,0.06308 z M 259.3457,4.2032436 c -4.67985,-0.9721347 -7.98232,-2.6320087 -10.76889,-5.4126101 -2.18027,-2.1755893 -3.33078,-3.9799999 -4.20923,-6.6016502 -1.70042,-5.0746653 -0.97821,-11.7267053 1.87003,-17.2246833 2.67739,-5.168131 7.41632,-8.831866 12.88756,-9.963532 2.4715,-0.511198 7.56526,-0.362979 9.94796,0.289467 3.48284,0.953707 7.17561,2.775092 8.80682,4.343819 l 0.57774,0.555596 -0.91824,3.511804 c -1.19602,4.574243 -1.41462,5.231595 -1.73971,5.231595 -0.14896,0 -1.10546,-0.77274 -2.12556,-1.7172 -2.20017,-2.037012 -3.91057,-3.055693 -6.42612,-3.82724 -4.32919,-1.327812 -8.24016,-0.389034 -11.12903,2.671382 -3.42694,3.630405 -4.79574,10.302556 -2.9436,14.348182 2.31256,5.0513221 8.69852,7.2528008 15.56356,5.3653481 1.4021,-0.38549 2.6225,-0.7008892 2.71198,-0.7008892 0.33649,0 0.10959,1.3005117 -0.85402,4.89479148 -0.91668,3.41925522 -1.05313,3.73322832 -1.77409,4.08201002 -1.12355,0.5435335 -7.13163,0.6410404 -9.47716,0.1538102 z"
         id="path3829"
         inkscape:connector-curvature="0" />
      <path
         style="fill:#7ebd40;stroke-width:0.26458332"
         d="m 5.0361899,412.51897 c -0.069017,-0.1819 -0.095046,-62.60042 -0.057843,-138.70781 l 0.067643,-138.37708 18.1901031,-0.068 18.190104,-0.068 V 274.07392 412.8497 h -18.13226 c -14.2624968,0 -18.1590444,-0.0706 -18.2577471,-0.33073 z M 108.89494,274.07757 V 135.30179 h 22.56804 22.56804 l 70.61783,110.66198 c 38.83983,60.86408 71.13725,111.47821 71.77209,112.47585 0.63484,0.99761 1.21605,1.75207 1.29156,1.67653 0.0755,-0.0755 -0.0212,-3.39209 -0.2146,-7.37013 -0.28012,-5.75685 -0.35192,-28.66715 -0.35192,-112.27236 V 135.43408 l 18.1901,-0.068 18.1901,-0.068 V 274.07392 412.8497 H 312.24069 290.9552 l -0.64664,-0.8599 C 289.16135,410.46427 148.2711,192.13843 146.85101,189.68563 c -0.75446,-1.3031 -1.50657,-2.41422 -1.67136,-2.46915 -0.22009,-0.0734 -0.24718,0.97686 -0.10206,3.95678 0.10866,2.23116 0.19756,52.99134 0.19756,112.8004 V 412.7174 l -18.1901,0.068 -18.19011,0.068 z m 297.17282,-7.50596 c -0.25337,-0.16254 -0.41754,-1.50612 -0.58973,-4.82719 -1.68249,-32.44602 -9.6125,-63.05486 -23.81284,-91.9145 -5.17438,-10.51601 -8.89445,-16.99439 -15.33435,-26.70423 -5.87669,-8.86066 -12.20028,-17.14286 -19.47265,-25.50389 C 342.50903,112.62157 330.27723,100.38978 325.277,96.040617 298.25842,72.54003 267.85594,55.884833 234.43973,46.277781 c -16.19732,-4.656677 -33.41518,-7.659677 -49.34479,-8.606322 -7.82989,-0.465304 -8.68254,-0.550706 -8.80983,-0.882395 -0.1461,-0.380736 0.83476,-33.4082274 1.01693,-34.2419532 0.12284,-0.562229 0.25844,-0.595167 2.44014,-0.5926958 4.26784,0.00484 14.86556,0.8665263 22.94755,1.8658469 13.81755,1.7085097 28.63157,4.7366817 41.82859,8.5502771 39.1156,11.30341 74.73029,31.02449 105.8089,58.590048 4.43786,3.936203 17.67481,17.173151 21.61101,21.610999 11.84381,13.353224 21.72631,26.786434 30.61002,41.607874 19.75686,32.96216 32.15626,69.26204 36.66971,107.35254 0.8858,7.47535 1.42745,13.88258 1.63714,19.36538 l 0.17396,4.54874 -0.63635,0.13991 c -0.34996,0.0769 -7.12523,0.32052 -15.05611,0.54126 -7.93089,0.22074 -15.43183,0.4617 -16.66875,0.53544 -1.23693,0.0737 -2.40697,0.0327 -2.60009,-0.0911 z m -494.684266,-0.57709 c -7.567083,-0.25947 -13.978684,-0.48212 -14.247994,-0.49477 -0.45924,-0.0214 -0.47887,-0.23254 -0.31596,-3.3964 2.21515,-43.01837 13.274886,-82.40718 33.503895,-119.32277 14.969211,-27.31706 35.862327,-53.229972 59.590254,-73.907437 C 15.382707,46.678421 44.981752,29.276707 76.711214,17.843599 101.52341,8.9029974 126.88338,3.8002091 154.4904,2.1933099 c 4.00273,-0.2329814 5.31994,-0.2319522 5.55625,0.00434 0.45872,0.4586737 1.44743,34.3848231 1.00997,34.6551921 -0.17292,0.106871 -2.85256,0.338413 -5.95474,0.514541 -28.87733,1.639512 -56.698279,8.415403 -83.258388,20.277877 -39.101954,17.464008 -73.4209618,46.06523 -98.275353,81.90199 -21.377052,30.8229 -35.174119,66.94859 -39.960355,104.63058 -0.575392,4.53006 -1.091544,10.51642 -1.653915,19.18229 l -0.197459,3.04271 -3.307291,0.0317 c -1.819011,0.0175 -9.498542,-0.18055 -17.065625,-0.44006 z M 470.35738,186.27629 c -0.13642,-0.16873 -0.7887,-2.2532 -1.44952,-4.63214 -0.66082,-2.37894 -1.26524,-4.38912 -1.34318,-4.46707 -0.0779,-0.0779 -6.55762,1.66011 -14.39929,3.86233 -7.84167,2.20223 -14.44657,4.00405 -14.67757,4.00405 -0.23099,0 -0.49954,-0.1287 -0.59675,-0.286 -0.4073,-0.65903 -2.14468,-7.37072 -1.97784,-7.64067 0.10007,-0.16193 6.66121,-2.11444 14.58027,-4.33891 10.75229,-3.02033 14.4187,-4.1504 14.47889,-4.46274 0.0444,-0.23004 -0.46661,-2.35368 -1.13543,-4.7192 -0.66884,-2.36552 -1.11498,-4.40202 -0.99145,-4.52556 0.28591,-0.28591 6.4683,-2.07276 7.17164,-2.07276 0.29014,0 0.59135,0.20836 0.66932,0.46303 0.86177,2.8144 7.08686,25.31289 7.20529,26.04115 l 0.15806,0.97187 -1.81652,0.52815 c -4.93898,1.436 -5.62504,1.5848 -5.87592,1.27447 z m -39.64736,-25.79596 c -0.36648,-0.23647 -3.25676,-6.81432 -3.25676,-7.41188 0,-0.26048 3.27422,-5.58414 7.27604,-11.83035 4.00183,-6.24622 7.27604,-11.4431 7.27604,-11.54864 0,-0.26752 0.18662,-0.3468 -10.844,4.60682 -5.45488,2.44967 -10.04337,4.40582 -10.19664,4.34701 -0.40923,-0.15703 -3.36987,-6.89509 -3.26125,-7.42225 0.12374,-0.60073 34.59114,-16.14204 35.11338,-15.83258 0.42693,0.25298 3.4571,6.86334 3.46829,7.5661 0.004,0.26679 -3.12801,5.32695 -6.96061,11.2448 -3.83257,5.91785 -7.1203,11.04503 -7.30607,11.39375 -0.30467,0.57194 -0.28945,0.61994 0.15531,0.49028 0.27117,-0.0791 4.87876,-2.12054 10.23906,-4.53663 5.36033,-2.41609 9.9005,-4.39288 10.08928,-4.39288 0.39515,0 3.66458,7.07174 3.48535,7.53878 -0.0907,0.23644 -20.84901,9.716 -33.52874,15.31138 -0.81224,0.35844 -1.59917,0.57277 -1.74868,0.47629 z m -16.4333,-43.81599 c -5.53561,-1.05065 -10.45993,-5.13255 -13.26523,-10.99588 -1.81369,-3.79075 -2.25263,-7.128285 -1.45428,-11.057508 1.19335,-5.873176 5.65833,-11.140974 12.15334,-14.338551 3.74698,-1.844675 5.40309,-2.238137 9.39271,-2.231541 2.9119,0.0048 3.55688,0.09212 5.39488,0.730237 2.48814,0.863828 3.74947,1.578785 5.77588,3.273983 2.93741,2.457281 5.59478,6.523183 6.71822,10.279295 0.57804,1.932517 0.64485,6.240383 0.12899,8.317005 -1.19973,4.82973 -4.49324,9.15113 -9.45899,12.41108 -4.89138,3.21115 -10.52668,4.53408 -15.38552,3.61188 z m 5.63592,-8.66555 c 1.54789,-0.38417 4.52662,-2.01212 6.34825,-3.46946 3.22493,-2.58 4.73871,-5.222008 4.74541,-8.282171 0.004,-1.642848 -0.1207,-2.133291 -0.98314,-3.878276 -2.28322,-4.619804 -6.55084,-6.614181 -11.43246,-5.342686 -2.44044,0.635654 -5.03925,2.171655 -7.14415,4.222472 -2.10724,2.053111 -3.13663,3.859033 -3.58428,6.288138 -0.52716,2.860443 0.73589,5.962863 3.46789,8.518333 2.43398,2.27672 4.94726,2.84589 8.58248,1.94365 z M 384.78468,83.505286 c -1.56186,-1.566724 -2.83975,-2.982393 -2.83975,-3.145927 0,-0.163536 2.98754,-3.194023 6.63901,-6.734415 3.65143,-3.540395 6.50634,-6.481297 6.3442,-6.535341 -0.16211,-0.05404 -3.41757,1.038474 -7.23429,2.427814 -3.81675,1.38934 -8.1095,2.949099 -9.53945,3.466129 l -2.59992,0.940054 -1.69955,-1.632008 c -0.93478,-0.897604 -1.69958,-1.760318 -1.69958,-1.917139 0,-0.156824 1.67582,-4.546222 3.72403,-9.754214 2.0482,-5.207994 3.68531,-9.584284 3.63803,-9.725093 -0.0473,-0.140806 -3.08219,2.660118 -6.74415,6.224278 -3.662,3.564159 -6.83858,6.480288 -7.05909,6.480288 -0.34811,0 -5.482,-5.22301 -5.66536,-5.763712 -0.0601,-0.177207 21.82662,-21.648213 26.10628,-25.610409 l 1.6587,-1.535678 3.01871,3.049613 c 1.97606,1.996327 3.01868,3.247054 3.01868,3.621262 0,0.314407 -2.04129,5.662176 -4.5362,11.883932 -4.57417,11.40701 -4.97374,12.503311 -4.55663,12.502419 0.1261,-2.64e-4 5.68995,-1.961742 12.36406,-4.358827 9.07423,-3.259103 12.25177,-4.295735 12.59858,-4.110128 0.85299,0.456507 5.606,5.794582 5.51696,6.196095 -0.0821,0.370485 -27.17916,26.878234 -27.47671,26.87917 -0.0752,2.36e-4 -1.41467,-1.281438 -2.97656,-2.848163 z m -32.69882,-31.678431 -3.77926,-2.793883 0.15761,-1.381734 c 0.60431,-5.297781 1.19235,-13.200139 1.04786,-14.081733 -0.0954,-0.582083 -0.33189,-1.368076 -0.52552,-1.746647 -0.47011,-0.919085 -1.68232,-1.703427 -2.16095,-1.398211 -0.20222,0.128944 -2.11797,2.614353 -4.25723,5.523134 -2.13926,2.908782 -4.07146,5.323726 -4.29379,5.366541 -0.64111,0.123468 -6.64504,-4.410117 -6.54891,-4.945107 0.0989,-0.550564 22.44254,-30.9778335 22.74792,-30.9778335 0.4803,0 11.29234,8.1489655 12.59493,9.4927205 0.8114,0.837049 1.80803,2.274361 2.38125,3.43417 0.92999,1.881706 0.98579,2.137693 0.98579,4.521887 0,2.370384 -0.061,2.655046 -0.98296,4.585809 -1.8874,3.95265 -5.35855,6.472007 -9.29584,6.746925 -1.04063,0.07266 -1.97951,0.264279 -2.08643,0.425817 -0.10691,0.161542 -0.20544,1.18668 -0.21896,2.278087 -0.0135,1.091406 -0.28324,5.49543 -0.59937,9.78672 -0.47879,6.499291 -0.64259,7.81528 -0.98083,7.879786 -0.22334,0.04259 -2.10672,-1.179812 -4.18531,-2.716448 z m 7.52337,-26.075895 c 1.85899,-1.14893 2.45226,-3.23324 1.40338,-4.930402 -0.59674,-0.965531 -3.77534,-3.522927 -4.37867,-3.522927 -0.38404,0 -4.45463,5.387099 -4.45463,5.895353 0,0.342794 2.252,2.107623 3.43958,2.695506 1.1498,0.569172 2.94709,0.507227 3.99034,-0.13753 z m -45.3803,0.832323 c -5.15646,-2.87161 -9.48354,-5.392581 -9.61575,-5.602157 -0.1737,-0.275368 2.29283,-4.966708 8.89333,-16.9150847 5.02351,-9.0937182 9.30455,-16.6422243 9.51344,-16.7744563 0.27305,-0.172871 2.99998,1.202419 9.70537,4.8947922 5.12908,2.8243661 9.38493,5.2843692 9.45745,5.4666724 0.15266,0.3837992 -3.11875,6.4199952 -3.66234,6.7574606 -0.2482,0.1541013 -2.13185,-0.7483501 -5.91976,-2.8361374 -3.05562,-1.68418658 -5.67611,-3.0621577 -5.82329,-3.0621577 -0.35825,0 -3.41218,5.5368188 -3.18262,5.7701469 0.099,0.1006395 2.4634,1.4494218 5.25417,2.9972977 2.79077,1.5478733 5.10829,2.9838733 5.15004,3.1911053 0.0693,0.344109 -2.74286,5.658437 -3.43665,6.494398 -0.38372,0.462365 -0.32171,0.489588 -5.96754,-2.619258 -2.65671,-1.462897 -4.99401,-2.597018 -5.19404,-2.520267 -0.46,0.176519 -3.41106,5.646816 -3.27176,6.064752 0.0569,0.170823 2.71468,1.754717 5.90609,3.519765 4.1213,2.279335 5.82279,3.355885 5.87232,3.715515 0.10834,0.786664 -3.22086,6.583089 -3.81098,6.635236 -0.27065,0.02392 -4.71101,-2.306013 -9.86748,-5.177623 z M 285.6366,12.819511 c -7.71041,-3.1580881 -8.33064,-3.4599433 -8.28458,-4.0318322 0.0585,-0.725752 13.95479,-34.8369278 14.35505,-35.2371748 0.18587,-0.185867 1.42213,0.18595 3.91364,1.177043 2.90935,1.157321 3.65805,1.559418 3.72197,1.998985 0.044,0.302637 -2.43065,6.70211 -5.49931,14.221051 -3.06864,7.5189412 -5.51712,13.7714764 -5.44108,13.8945208 0.076,0.1230472 2.87488,1.3336799 6.21967,2.6902965 3.34475,1.3566166 6.13055,2.5947267 6.19064,2.7513547 0.0601,0.15663 -0.38944,1.530937 -0.99896,3.054016 l -1.10826,2.769235 -2.3672,0.06308 -2.3672,0.06308 z M 259.3457,4.2032436 c -4.67985,-0.9721347 -7.98232,-2.6320087 -10.76889,-5.4126101 -2.18027,-2.1755893 -3.33078,-3.9799999 -4.20923,-6.6016502 -1.70042,-5.0746653 -0.97821,-11.7267053 1.87003,-17.2246833 2.67739,-5.168131 7.41632,-8.831866 12.88756,-9.963532 2.4715,-0.511198 7.56526,-0.362979 9.94796,0.289467 3.48284,0.953707 7.17561,2.775092 8.80682,4.343819 l 0.57774,0.555596 -0.91824,3.511804 c -1.19602,4.574243 -1.41462,5.231595 -1.73971,5.231595 -0.14896,0 -1.10546,-0.77274 -2.12556,-1.7172 -2.20017,-2.037012 -3.91057,-3.055693 -6.42612,-3.82724 -4.32919,-1.327812 -8.24016,-0.389034 -11.12903,2.671382 -3.42694,3.630405 -4.79574,10.302556 -2.9436,14.348182 2.31256,5.0513221 8.69852,7.2528008 15.56356,5.3653481 1.4021,-0.38549 2.6225,-0.7008892 2.71198,-0.7008892 0.33649,0 0.10959,1.3005117 -0.85402,4.89479148 -0.91668,3.41925522 -1.05313,3.73322832 -1.77409,4.08201002 -1.12355,0.5435335 -7.13163,0.6410404 -9.47716,0.1538102 z"
         id="path3827"
         inkscape:connector-curvature="0" />
      <path
         style="fill:#ed5226;stroke-width:0.26458332"
         d="M 5.3014823,412.52082 C 5.2320768,412.33789 5.2057269,349.91855 5.24293,273.81116 L 5.3105734,135.43408 H 23.302239 41.293905 V 274.07574 412.7174 l -17.933114,0.068 c -14.2064411,0.0539 -17.9593386,0 -18.0593087,-0.26458 z m 103.7166577,0 c -0.0694,-0.18293 -0.0958,-62.60227 -0.0585,-138.70966 l 0.0677,-138.37708 h 22.45959 22.4596 l 70.08509,109.80208 c 38.5468,60.39115 70.88415,111.082 71.86076,112.64635 0.9766,1.56435 1.88364,2.84427 2.01567,2.84427 0.13613,0 0.16928,-0.7733 0.0766,-1.78594 -0.63291,-6.91565 -0.72734,-24.43014 -0.65286,-121.11301 l 0.0789,-102.39375 h 17.99167 17.99166 V 274.07574 412.7174 l -21.08004,0.0677 c -18.12716,0.0582 -21.1338,0.014 -21.46377,-0.31602 -0.59621,-0.59621 -142.27063,-220.09624 -143.9787,-223.07012 -0.83262,-1.44966 -1.59192,-2.71911 -1.68734,-2.82098 -0.0954,-0.10188 -0.17347,50.73781 -0.17347,112.97707 V 412.7174 l -17.93312,0.068 c -14.20644,0.0539 -17.95934,0 -18.05931,-0.26458 z M -88.616506,265.99452 c -7.567083,-0.25947 -13.978684,-0.48212 -14.247994,-0.49477 -0.45924,-0.0214 -0.47887,-0.23254 -0.31596,-3.3964 2.21515,-43.01837 13.274886,-82.40718 33.503895,-119.32277 14.969211,-27.31706 35.862327,-53.229972 59.590254,-73.907437 C 15.382707,46.678421 44.981752,29.276707 76.711214,17.843599 101.52341,8.9029974 126.88338,3.8002091 154.4904,2.1933099 c 4.00273,-0.2329814 5.31994,-0.2319522 5.55625,0.00434 0.45872,0.4586737 1.44743,34.3848231 1.00997,34.6551921 -0.17292,0.106871 -2.85256,0.338413 -5.95474,0.514541 -28.87733,1.639512 -56.698279,8.415403 -83.258388,20.277877 -39.101954,17.464008 -73.4209618,46.06523 -98.275353,81.90199 -21.377052,30.8229 -35.174119,66.94859 -39.960355,104.63058 -0.575392,4.53006 -1.091544,10.51642 -1.653915,19.18229 l -0.197459,3.04271 -3.307291,0.0317 c -1.819011,0.0175 -9.498542,-0.18055 -17.065625,-0.44006 z M 470.42797,186.06931 c -0.11663,-0.18874 -0.75515,-2.25294 -1.41891,-4.58711 -1.03142,-3.62703 -1.28682,-4.25538 -1.75707,-4.32259 -0.3026,-0.0433 -6.95743,1.72206 -14.78849,3.92292 -10.17116,2.85853 -14.29281,3.91329 -14.42926,3.69254 -0.42098,-0.68116 -2.13582,-7.48789 -1.93394,-7.67642 0.11908,-0.11119 6.64432,-2.00489 14.50051,-4.20821 7.85622,-2.20332 14.38746,-4.1095 14.51393,-4.23595 0.13015,-0.13016 -0.3188,-2.19529 -1.03473,-4.75966 -0.76301,-2.73298 -1.16766,-4.62037 -1.02016,-4.7582 0.42186,-0.39424 7.05792,-2.17883 7.26991,-1.95505 0.18542,0.19571 7.65892,26.55601 7.65892,27.01429 0,0.16712 -1.58541,0.64827 -6.91544,2.09873 -0.23826,0.0648 -0.52862,-0.0366 -0.64527,-0.22529 z m -41.37361,-29.25893 c -1.28836,-2.85622 -1.58263,-3.74163 -1.38499,-4.16718 0.13806,-0.2972 3.47965,-5.5717 7.42577,-11.72112 3.94613,-6.14941 7.17479,-11.23933 7.17479,-11.31093 0,-0.39065 -1.61907,0.26821 -10.80976,4.39895 -5.54242,2.49102 -10.22938,4.47005 -10.41546,4.39784 -0.18608,-0.0722 -1.04537,-1.70856 -1.90952,-3.63634 -1.41463,-3.15574 -1.52795,-3.53669 -1.13708,-3.82249 0.23876,-0.1746 8.07591,-3.75049 17.41588,-7.94645 11.96441,-5.37497 17.09232,-7.55791 17.35598,-7.38837 0.47675,0.30655 3.59286,7.22339 3.43204,7.61811 -0.0662,0.16249 -3.40153,5.35471 -7.41182,11.53827 -4.01032,6.18356 -7.2031,11.33121 -7.09507,11.43922 0.108,0.10801 4.69551,-1.82587 10.19448,-4.29752 5.49894,-2.47165 10.21291,-4.49391 10.47546,-4.49391 0.35705,0 0.86122,0.86274 1.99998,3.42239 0.83744,1.88232 1.46098,3.58299 1.38568,3.77926 -0.12404,0.32324 -34.22367,15.8171 -34.81102,15.8171 -0.13716,0 -0.98554,-1.63207 -1.88534,-3.62683 z m -15.78999,-40.55296 c -5.14014,-1.34762 -9.26115,-4.88141 -11.88577,-10.19208 -1.6678,-3.37463 -2.05988,-5.16381 -1.91227,-8.726222 0.20277,-4.894043 1.67579,-8.171032 5.36506,-11.935618 3.19606,-3.261307 7.01074,-5.53144 11.2854,-6.716011 2.42991,-0.673357 6.93187,-0.731682 9.29101,-0.120372 6.26075,1.622327 11.81502,7.51307 13.57558,14.398036 0.63971,2.501638 0.41984,6.637674 -0.49009,9.219957 -1.62192,4.60287 -4.88847,8.3869 -9.71251,11.2512 -5.20671,3.09151 -10.68557,4.08764 -15.51641,2.82111 z m 6.38368,-8.03873 c 4.04689,-1.08264 8.85492,-4.7651 10.6248,-8.13749 0.65944,-1.25655 0.74737,-1.704503 0.74705,-3.805448 0,-2.154031 -0.0795,-2.532729 -0.8296,-3.96875 -2.97725,-5.699712 -8.38258,-7.340126 -14.33838,-4.351408 -8.28122,4.155657 -10.62344,11.654173 -5.44079,17.418526 2.54715,2.83304 5.67706,3.79691 9.23692,2.84457 z m -34.7273,-24.804185 c -1.41843,-1.471133 -2.57894,-2.871941 -2.57894,-3.112902 0,-0.240961 2.91703,-3.283302 6.48229,-6.760752 3.56526,-3.47745 6.52198,-6.422427 6.57047,-6.544389 0.18712,-0.470421 -0.9145,-0.118684 -9.75315,3.114138 -5.01626,1.834739 -9.33852,3.398977 -9.60506,3.476087 -0.55607,0.160878 -3.61643,-2.682848 -3.61643,-3.360451 0,-0.220827 1.66688,-4.639863 3.70417,-9.820084 2.03729,-5.180222 3.70416,-9.557414 3.70416,-9.727096 0,-0.606648 -0.44042,-0.275643 -2.78362,2.092025 -1.30667,1.320295 -4.38031,4.320532 -6.83035,6.667191 l -4.45461,4.266654 -2.75529,-2.788835 c -1.5154,-1.533861 -2.75529,-2.91983 -2.75529,-3.079932 0,-0.300916 26.44923,-26.205161 27.17215,-26.612264 0.30885,-0.173916 1.07109,0.430202 3.1714,2.513541 1.52069,1.508369 2.88404,2.958134 3.02967,3.221704 0.20798,0.376375 -0.76767,3.064129 -4.54618,12.523972 -2.74648,6.876076 -4.7117,12.144028 -4.57962,12.276098 0.13205,0.132066 5.44264,-1.637401 12.37543,-4.123452 6.67928,-2.395138 12.28098,-4.354795 12.44828,-4.354795 0.3678,0 5.9622,5.6325 5.9622,6.002816 0,0.143584 -1.93627,2.155674 -4.30284,4.47131 -15.84478,15.503839 -22.9367,22.334205 -23.1894,22.334205 -0.15979,0 -1.45103,-1.203655 -2.86944,-2.674789 z M 352.64296,52.089351 c -1.89375,-1.38299 -3.5946,-2.696951 -3.77965,-2.919913 -0.27342,-0.32944 -0.22952,-1.580787 0.23421,-6.679742 0.64011,-7.037964 0.69482,-8.946856 0.28744,-10.027446 -0.3294,-0.873704 -1.79403,-2.46462 -2.26898,-2.46462 -0.18114,0 -2.20676,2.559844 -4.50141,5.688542 -2.29465,3.128698 -4.25064,5.688541 -4.34666,5.688541 -0.21531,0 -5.17892,-3.569851 -5.99863,-4.314248 -0.5687,-0.51644 -0.57573,-0.571354 -0.15671,-1.2221 0.2413,-0.374748 5.32027,-7.328079 11.28657,-15.451848 7.78758,-10.603616 10.96671,-14.7390903 11.26921,-14.6591914 0.82904,0.2189718 10.50716,7.4884254 12.09812,9.0871694 1.01428,1.019249 1.95657,2.308725 2.51355,3.439621 0.8405,1.706676 0.89095,1.966764 0.89095,4.593499 0,2.563202 -0.0649,2.921008 -0.81658,4.504182 -1.8292,3.852365 -5.0278,6.182228 -9.19649,6.698702 l -2.20105,0.272696 -0.5829,8.618989 c -0.68231,10.089184 -0.82965,11.661695 -1.09257,11.661695 -0.10737,0 -1.74464,-1.131538 -3.63842,-2.514528 z m 6.36199,-25.888766 c 1.14615,-0.478888 2.50177,-2.068084 2.70973,-3.176614 0.21331,-1.13701 -0.26384,-2.07613 -1.77509,-3.49381 -1.37671,-1.29146 -2.99662,-2.497113 -3.3551,-2.497113 -0.35981,0 -4.53747,5.699791 -4.53747,6.190662 0,0.218451 0.77356,0.949185 1.71902,1.623854 2.40165,1.713777 3.62151,2.028819 5.23891,1.353021 z M 314.37974,26.4784 c -8.54765,-4.701813 -9.70351,-5.412325 -9.61445,-5.910059 0.13377,-0.747763 17.96349,-33.108593 18.32528,-33.260276 0.43685,-0.183158 18.75798,10.0346442 18.85534,10.5157361 0.12523,0.6188233 -3.1827,6.5023071 -3.65723,6.5047597 -0.21828,0.00106 -2.88152,-1.3694991 -5.9183,-3.0458408 -4.26638,-2.3550958 -5.60229,-2.9807693 -5.87724,-2.7525767 -0.45747,0.3796426 -3.02112,5.1264791 -3.02112,5.5938311 0,0.1949477 2.16215,1.5421319 4.80478,2.9937418 2.64266,1.4516099 5.0247,2.8178838 5.29344,3.0361648 0.46601,0.378497 0.40629,0.546955 -1.2895,3.638021 -1.09022,1.987259 -1.93538,3.238944 -2.18456,3.23546 -0.22355,-0.0031 -2.66465,-1.256139 -5.42465,-2.784467 -2.76,-1.528326 -5.15189,-2.727465 -5.31532,-2.664751 -0.4296,0.164854 -3.60767,5.999871 -3.4672,6.365896 0.065,0.169309 2.59349,1.670708 5.61898,3.336443 3.02546,1.665732 5.73664,3.218183 6.02485,3.449889 0.51295,0.412379 0.48639,0.489169 -1.25698,3.63338 -0.97957,1.766652 -1.8709,3.267638 -1.98072,3.335525 -0.10986,0.06789 -4.57179,-2.281507 -9.9154,-5.220877 z M 288.8116,13.974509 c -2.98317,-1.224483 -6.76341,-2.777974 -8.40052,-3.452198 -1.83639,-0.7563036 -2.97656,-1.3710339 -2.97656,-1.6048435 0,-0.7294086 14.14576,-35.0752455 14.50255,-35.2121655 0.40704,-0.156193 6.5968,2.203301 7.16529,2.731359 0.312,0.289797 -0.49752,2.464702 -5.24851,14.1008948 -3.08957,7.567037 -5.57729,13.953528 -5.52826,14.1922007 0.0597,0.2906871 2.08103,1.247812 6.12264,2.8991664 3.31841,1.3558678 6.10664,2.5383671 6.19604,2.6277811 0.16994,0.16992 -1.66576,5.076573 -2.1145,5.651864 -0.16885,0.21648 -0.95512,0.324086 -2.27607,0.311502 -1.90508,-0.01815 -2.32201,-0.143962 -7.4421,-2.245561 z M 261.16264,4.3108761 c -2.38053,-0.280334 -6.08972,-1.3595402 -8.01772,-2.3327967 -4.30879,-2.17507339 -7.08945,-5.3595903 -8.68653,-9.9481557 -0.66884,-1.921599 -0.7371,-2.4580347 -0.74086,-5.8208327 -0.003,-3.047916 0.10379,-4.102605 0.60507,-5.953125 2.01261,-7.429407 6.45639,-12.407497 13.13588,-14.715311 1.89767,-0.65566 2.48621,-0.732132 5.68854,-0.739136 2.93047,-0.0064 3.97571,0.102418 5.82083,0.606055 2.57964,0.70413 7.11121,2.828168 8.45154,3.961406 l 0.9109,0.770173 -0.58883,2.214136 c -0.32385,1.217775 -0.83608,3.13687 -1.13831,4.264656 -0.32452,1.210936 -0.68895,2.050521 -0.89006,2.050521 -0.1873,0 -1.22555,-0.803672 -2.3072,-1.785937 -2.3904,-2.170773 -4.02105,-3.088478 -6.70959,-3.776094 -2.47539,-0.633097 -4.04339,-0.660288 -5.94865,-0.103159 -4.48673,1.31199 -7.43567,5.216459 -8.44087,11.175885 -0.41368,2.452557 -0.0306,4.856069 1.11728,7.0096524 1.40523,2.6365066 3.89366,4.3053236 7.55745,5.0682655 2.61737,0.5450416 4.59909,0.5068781 6.9459,-0.1337654 2.20551,-0.6020673 3.68741,-0.9055947 3.684,-0.7545705 -0.0151,0.6647074 -2.18355,8.0872908 -2.43536,8.3356208 -0.18727,0.1846871 -1.3494,0.461227 -2.58251,0.6145318 -2.47389,0.3075623 -2.75458,0.3071469 -5.4309,-0.00802 z"
         id="path3825"
         inkscape:connector-curvature="0" />
      <path
         style="fill:#5b5b5d;stroke-width:0.26458332"
         d="M 5.3014823,412.52082 C 5.2320768,412.33789 5.2057269,349.91855 5.24293,273.81116 L 5.3105734,135.43408 H 23.302239 41.293905 V 274.07574 412.7174 l -17.933114,0.068 c -14.2064411,0.0539 -17.9593386,0 -18.0593087,-0.26458 z m 103.7166577,0 c -0.0694,-0.18293 -0.0958,-62.60227 -0.0585,-138.70966 l 0.0677,-138.37708 h 22.45959 22.4596 l 70.08509,109.80208 c 38.5468,60.39115 70.88415,111.082 71.86076,112.64635 0.9766,1.56435 1.88364,2.84427 2.01567,2.84427 0.13613,0 0.16928,-0.7733 0.0766,-1.78594 -0.63291,-6.91565 -0.72734,-24.43014 -0.65286,-121.11301 l 0.0789,-102.39375 h 17.99167 17.99166 V 274.07574 412.7174 l -21.08004,0.0677 c -18.12716,0.0582 -21.1338,0.014 -21.46377,-0.31602 -0.59621,-0.59621 -142.27063,-220.09624 -143.9787,-223.07012 -0.83262,-1.44966 -1.59192,-2.71911 -1.68734,-2.82098 -0.0954,-0.10188 -0.17347,50.73781 -0.17347,112.97707 V 412.7174 l -17.93312,0.068 c -14.20644,0.0539 -17.95934,0 -18.05931,-0.26458 z M 470.42797,186.06931 c -0.11663,-0.18874 -0.75515,-2.25294 -1.41891,-4.58711 -1.03142,-3.62703 -1.28682,-4.25538 -1.75707,-4.32259 -0.3026,-0.0433 -6.95743,1.72206 -14.78849,3.92292 -10.17116,2.85853 -14.29281,3.91329 -14.42926,3.69254 -0.42098,-0.68116 -2.13582,-7.48789 -1.93394,-7.67642 0.11908,-0.11119 6.64432,-2.00489 14.50051,-4.20821 7.85622,-2.20332 14.38746,-4.1095 14.51393,-4.23595 0.13015,-0.13016 -0.3188,-2.19529 -1.03473,-4.75966 -0.76301,-2.73298 -1.16766,-4.62037 -1.02016,-4.7582 0.42186,-0.39424 7.05792,-2.17883 7.26991,-1.95505 0.18542,0.19571 7.65892,26.55601 7.65892,27.01429 0,0.16712 -1.58541,0.64827 -6.91544,2.09873 -0.23826,0.0648 -0.52862,-0.0366 -0.64527,-0.22529 z m -41.37361,-29.25893 c -1.28836,-2.85622 -1.58263,-3.74163 -1.38499,-4.16718 0.13806,-0.2972 3.47965,-5.5717 7.42577,-11.72112 3.94613,-6.14941 7.17479,-11.23933 7.17479,-11.31093 0,-0.39065 -1.61907,0.26821 -10.80976,4.39895 -5.54242,2.49102 -10.22938,4.47005 -10.41546,4.39784 -0.18608,-0.0722 -1.04537,-1.70856 -1.90952,-3.63634 -1.41463,-3.15574 -1.52795,-3.53669 -1.13708,-3.82249 0.23876,-0.1746 8.07591,-3.75049 17.41588,-7.94645 11.96441,-5.37497 17.09232,-7.55791 17.35598,-7.38837 0.47675,0.30655 3.59286,7.22339 3.43204,7.61811 -0.0662,0.16249 -3.40153,5.35471 -7.41182,11.53827 -4.01032,6.18356 -7.2031,11.33121 -7.09507,11.43922 0.108,0.10801 4.69551,-1.82587 10.19448,-4.29752 5.49894,-2.47165 10.21291,-4.49391 10.47546,-4.49391 0.35705,0 0.86122,0.86274 1.99998,3.42239 0.83744,1.88232 1.46098,3.58299 1.38568,3.77926 -0.12404,0.32324 -34.22367,15.8171 -34.81102,15.8171 -0.13716,0 -0.98554,-1.63207 -1.88534,-3.62683 z m -15.78999,-40.55296 c -5.14014,-1.34762 -9.26115,-4.88141 -11.88577,-10.19208 -1.6678,-3.37463 -2.05988,-5.16381 -1.91227,-8.726222 0.20277,-4.894043 1.67579,-8.171032 5.36506,-11.935618 3.19606,-3.261307 7.01074,-5.53144 11.2854,-6.716011 2.42991,-0.673357 6.93187,-0.731682 9.29101,-0.120372 6.26075,1.622327 11.81502,7.51307 13.57558,14.398036 0.63971,2.501638 0.41984,6.637674 -0.49009,9.219957 -1.62192,4.60287 -4.88847,8.3869 -9.71251,11.2512 -5.20671,3.09151 -10.68557,4.08764 -15.51641,2.82111 z m 6.38368,-8.03873 c 4.04689,-1.08264 8.85492,-4.7651 10.6248,-8.13749 0.65944,-1.25655 0.74737,-1.704503 0.74705,-3.805448 0,-2.154031 -0.0795,-2.532729 -0.8296,-3.96875 -2.97725,-5.699712 -8.38258,-7.340126 -14.33838,-4.351408 -8.28122,4.155657 -10.62344,11.654173 -5.44079,17.418526 2.54715,2.83304 5.67706,3.79691 9.23692,2.84457 z m -34.7273,-24.804185 c -1.41843,-1.471133 -2.57894,-2.871941 -2.57894,-3.112902 0,-0.240961 2.91703,-3.283302 6.48229,-6.760752 3.56526,-3.47745 6.52198,-6.422427 6.57047,-6.544389 0.18712,-0.470421 -0.9145,-0.118684 -9.75315,3.114138 -5.01626,1.834739 -9.33852,3.398977 -9.60506,3.476087 -0.55607,0.160878 -3.61643,-2.682848 -3.61643,-3.360451 0,-0.220827 1.66688,-4.639863 3.70417,-9.820084 2.03729,-5.180222 3.70416,-9.557414 3.70416,-9.727096 0,-0.606648 -0.44042,-0.275643 -2.78362,2.092025 -1.30667,1.320295 -4.38031,4.320532 -6.83035,6.667191 l -4.45461,4.266654 -2.75529,-2.788835 c -1.5154,-1.533861 -2.75529,-2.91983 -2.75529,-3.079932 0,-0.300916 26.44923,-26.205161 27.17215,-26.612264 0.30885,-0.173916 1.07109,0.430202 3.1714,2.513541 1.52069,1.508369 2.88404,2.958134 3.02967,3.221704 0.20798,0.376375 -0.76767,3.064129 -4.54618,12.523972 -2.74648,6.876076 -4.7117,12.144028 -4.57962,12.276098 0.13205,0.132066 5.44264,-1.637401 12.37543,-4.123452 6.67928,-2.395138 12.28098,-4.354795 12.44828,-4.354795 0.3678,0 5.9622,5.6325 5.9622,6.002816 0,0.143584 -1.93627,2.155674 -4.30284,4.47131 -15.84478,15.503839 -22.9367,22.334205 -23.1894,22.334205 -0.15979,0 -1.45103,-1.203655 -2.86944,-2.674789 z M 352.64296,52.089351 c -1.89375,-1.38299 -3.5946,-2.696951 -3.77965,-2.919913 -0.27342,-0.32944 -0.22952,-1.580787 0.23421,-6.679742 0.64011,-7.037964 0.69482,-8.946856 0.28744,-10.027446 -0.3294,-0.873704 -1.79403,-2.46462 -2.26898,-2.46462 -0.18114,0 -2.20676,2.559844 -4.50141,5.688542 -2.29465,3.128698 -4.25064,5.688541 -4.34666,5.688541 -0.21531,0 -5.17892,-3.569851 -5.99863,-4.314248 -0.5687,-0.51644 -0.57573,-0.571354 -0.15671,-1.2221 0.2413,-0.374748 5.32027,-7.328079 11.28657,-15.451848 7.78758,-10.603616 10.96671,-14.7390903 11.26921,-14.6591914 0.82904,0.2189718 10.50716,7.4884254 12.09812,9.0871694 1.01428,1.019249 1.95657,2.308725 2.51355,3.439621 0.8405,1.706676 0.89095,1.966764 0.89095,4.593499 0,2.563202 -0.0649,2.921008 -0.81658,4.504182 -1.8292,3.852365 -5.0278,6.182228 -9.19649,6.698702 l -2.20105,0.272696 -0.5829,8.618989 c -0.68231,10.089184 -0.82965,11.661695 -1.09257,11.661695 -0.10737,0 -1.74464,-1.131538 -3.63842,-2.514528 z m 6.36199,-25.888766 c 1.14615,-0.478888 2.50177,-2.068084 2.70973,-3.176614 0.21331,-1.13701 -0.26384,-2.07613 -1.77509,-3.49381 -1.37671,-1.29146 -2.99662,-2.497113 -3.3551,-2.497113 -0.35981,0 -4.53747,5.699791 -4.53747,6.190662 0,0.218451 0.77356,0.949185 1.71902,1.623854 2.40165,1.713777 3.62151,2.028819 5.23891,1.353021 z M 314.37974,26.4784 c -8.54765,-4.701813 -9.70351,-5.412325 -9.61445,-5.910059 0.13377,-0.747763 17.96349,-33.108593 18.32528,-33.260276 0.43685,-0.183158 18.75798,10.0346442 18.85534,10.5157361 0.12523,0.6188233 -3.1827,6.5023071 -3.65723,6.5047597 -0.21828,0.00106 -2.88152,-1.3694991 -5.9183,-3.0458408 -4.26638,-2.3550958 -5.60229,-2.9807693 -5.87724,-2.7525767 -0.45747,0.3796426 -3.02112,5.1264791 -3.02112,5.5938311 0,0.1949477 2.16215,1.5421319 4.80478,2.9937418 2.64266,1.4516099 5.0247,2.8178838 5.29344,3.0361648 0.46601,0.378497 0.40629,0.546955 -1.2895,3.638021 -1.09022,1.987259 -1.93538,3.238944 -2.18456,3.23546 -0.22355,-0.0031 -2.66465,-1.256139 -5.42465,-2.784467 -2.76,-1.528326 -5.15189,-2.727465 -5.31532,-2.664751 -0.4296,0.164854 -3.60767,5.999871 -3.4672,6.365896 0.065,0.169309 2.59349,1.670708 5.61898,3.336443 3.02546,1.665732 5.73664,3.218183 6.02485,3.449889 0.51295,0.412379 0.48639,0.489169 -1.25698,3.63338 -0.97957,1.766652 -1.8709,3.267638 -1.98072,3.335525 -0.10986,0.06789 -4.57179,-2.281507 -9.9154,-5.220877 z M 288.8116,13.974509 c -2.98317,-1.224483 -6.76341,-2.777974 -8.40052,-3.452198 -1.83639,-0.7563036 -2.97656,-1.3710339 -2.97656,-1.6048435 0,-0.7294086 14.14576,-35.0752455 14.50255,-35.2121655 0.40704,-0.156193 6.5968,2.203301 7.16529,2.731359 0.312,0.289797 -0.49752,2.464702 -5.24851,14.1008948 -3.08957,7.567037 -5.57729,13.953528 -5.52826,14.1922007 0.0597,0.2906871 2.08103,1.247812 6.12264,2.8991664 3.31841,1.3558678 6.10664,2.5383671 6.19604,2.6277811 0.16994,0.16992 -1.66576,5.076573 -2.1145,5.651864 -0.16885,0.21648 -0.95512,0.324086 -2.27607,0.311502 -1.90508,-0.01815 -2.32201,-0.143962 -7.4421,-2.245561 z M 261.16264,4.3108761 c -2.38053,-0.280334 -6.08972,-1.3595402 -8.01772,-2.3327967 -4.30879,-2.17507339 -7.08945,-5.3595903 -8.68653,-9.9481557 -0.66884,-1.921599 -0.7371,-2.4580347 -0.74086,-5.8208327 -0.003,-3.047916 0.10379,-4.102605 0.60507,-5.953125 2.01261,-7.429407 6.45639,-12.407497 13.13588,-14.715311 1.89767,-0.65566 2.48621,-0.732132 5.68854,-0.739136 2.93047,-0.0064 3.97571,0.102418 5.82083,0.606055 2.57964,0.70413 7.11121,2.828168 8.45154,3.961406 l 0.9109,0.770173 -0.58883,2.214136 c -0.32385,1.217775 -0.83608,3.13687 -1.13831,4.264656 -0.32452,1.210936 -0.68895,2.050521 -0.89006,2.050521 -0.1873,0 -1.22555,-0.803672 -2.3072,-1.785937 -2.3904,-2.170773 -4.02105,-3.088478 -6.70959,-3.776094 -2.47539,-0.633097 -4.04339,-0.660288 -5.94865,-0.103159 -4.48673,1.31199 -7.43567,5.216459 -8.44087,11.175885 -0.41368,2.452557 -0.0306,4.856069 1.11728,7.0096524 1.40523,2.6365066 3.89366,4.3053236 7.55745,5.0682655 2.61737,0.5450416 4.59909,0.5068781 6.9459,-0.1337654 2.20551,-0.6020673 3.68741,-0.9055947 3.684,-0.7545705 -0.0151,0.6647074 -2.18355,8.0872908 -2.43536,8.3356208 -0.18727,0.1846871 -1.3494,0.461227 -2.58251,0.6145318 -2.47389,0.3075623 -2.75458,0.3071469 -5.4309,-0.00802 z"
         id="path3823"
         inkscape:connector-curvature="0" />
      <path
         style="fill:#39393b;stroke-width:0.26458332"
         d="M 5.442865,274.07574 V 135.83096 H 23.169948 40.89703 V 274.07574 412.32053 H 23.169948 5.442865 Z m 103.981245,0 V 135.83096 h 22.16006 22.16007 l 67.99671,106.53106 c 37.39819,58.59208 69.73826,109.28294 71.86686,112.64635 2.12857,3.36341 4.04836,6.1509 4.26617,6.19442 0.59489,0.11888 0.65082,-0.34075 0.4282,-3.51872 -0.60833,-8.6841 -0.75226,-32.28085 -0.75568,-123.89114 l -0.004,-97.96197 h 17.72708 17.72709 v 138.24478 138.24479 l -20.96823,-0.003 -20.96823,-0.003 -71.17291,-110.22007 c -39.14511,-60.619 -71.95425,-111.60678 -72.90922,-113.30414 -0.95763,-1.70211 -1.90688,-3.08612 -2.11666,-3.08612 -0.30663,0 -0.36629,0.43598 -0.30773,2.24896 0.04,1.23693 0.13435,52.22544 0.20978,113.30781 l 0.13716,111.05885 h -17.73844 -17.73843 z m 359.94143,-92.76726 c -0.71742,-2.53088 -1.44071,-4.58896 -1.63952,-4.66525 -0.19569,-0.0751 -6.84303,1.68274 -14.7719,3.90629 -8.19407,2.29791 -14.5043,3.94032 -14.62037,3.80535 -0.23694,-0.2755 -1.8863,-6.18707 -1.88132,-6.74296 0.003,-0.26415 2.46446,-1.05979 8.40052,-2.71471 21.98666,-6.12964 20.70071,-5.72613 20.69679,-6.49431 -0.003,-0.3793 -0.52361,-2.53511 -1.15927,-4.79068 -0.63566,-2.25558 -1.08056,-4.17328 -0.98867,-4.26156 0.357,-0.34297 6.46311,-1.85093 6.66136,-1.64508 0.21805,0.22642 7.39635,25.56224 7.39635,26.10547 0,0.26768 -5.71476,2.0512 -6.51396,2.03294 -0.16293,-0.004 -0.87392,-2.0447 -1.58001,-4.5355 z m -39.11759,-22.7928 c -0.33867,-0.7658 -0.98695,-2.21102 -1.44063,-3.2116 -0.45371,-1.00058 -0.82489,-1.98692 -0.82489,-2.19186 0,-0.20495 3.2906,-5.50675 7.31242,-11.78178 4.02185,-6.27503 7.36947,-11.62729 7.43921,-11.8939 0.0933,-0.35696 -0.0206,-0.48475 -0.43214,-0.48475 -0.30742,0 -5.05402,2.01611 -10.54807,4.48025 -5.49402,2.46414 -10.14076,4.51796 -10.3261,4.56406 -0.30528,0.0759 -3.21937,-5.82367 -3.23059,-6.54041 -0.004,-0.23196 33.03169,-15.2631 34.09712,-15.51425 0.4464,-0.10523 3.56314,6.53793 3.38568,7.21646 -0.0644,0.24634 -3.2672,5.31192 -7.11731,11.25684 -3.85011,5.94491 -7.14971,11.0896 -7.33243,11.43264 -0.4436,0.83283 -0.018,1.30015 0.8341,0.91573 12.23716,-5.52112 20.36434,-9.11726 20.43663,-9.04284 0.34962,0.36005 2.98511,6.74352 2.83892,6.87625 -0.28524,0.25902 -33.92228,15.31152 -34.21586,15.31152 -0.14314,0 -0.53739,-0.62656 -0.87606,-1.39236 z M 415.8116,116.36321 c -3.74666,-0.63468 -5.83396,-1.4738 -8.39179,-3.37363 -3.36989,-2.50297 -6.55791,-7.56643 -7.37846,-11.71902 -1.29861,-6.571891 1.55096,-13.321869 7.54702,-17.877203 2.4284,-1.844913 7.08737,-4.060894 9.60112,-4.56666 6.70513,-1.349063 12.91469,0.864642 17.21673,6.137758 5.42444,6.648791 6.07446,14.267323 1.79541,21.042705 -2.59882,4.11494 -8.40438,8.2826 -13.50767,9.69679 -1.8675,0.51752 -5.60543,0.87557 -6.88236,0.65926 z m 4.6302,-7.96771 c 2.53752,-0.77812 6.42131,-3.29702 8.25117,-5.35142 1.25116,-1.4047 2.20038,-3.142848 2.64768,-4.848223 0.39545,-1.507799 0.41545,-1.977202 0.14018,-3.289604 -1.36377,-6.501828 -7.19725,-10.138214 -13.3214,-8.30409 -2.64832,0.793146 -5.27873,2.397947 -7.36036,4.490532 -4.56954,4.593592 -4.78177,9.952235 -0.57923,14.627285 2.70499,3.00916 6.17344,3.917 10.22196,2.67552 z m -35.40929,-25.436157 -2.59101,-2.600786 6.89547,-6.693915 c 3.79251,-3.681651 6.89546,-6.850052 6.89546,-7.040891 0,-0.190836 -0.1021,-0.410085 -0.22691,-0.487217 -0.1248,-0.07713 -4.61941,1.461585 -9.98802,3.419372 -5.3686,1.957787 -9.94378,3.56168 -10.16703,3.56421 -0.22323,0.0026 -1.03355,-0.630926 -1.80063,-1.407671 l -1.39472,-1.412269 3.85114,-9.81094 c 2.11815,-5.396015 3.85117,-10.007525 3.85117,-10.247799 0,-1.050253 -1.42129,0.09961 -7.83905,6.341975 l -6.79548,6.609739 -2.47232,-2.616933 c -1.35977,-1.439312 -2.47231,-2.690402 -2.47231,-2.780199 0,-0.175186 23.9192,-23.535406 25.86386,-25.259447 l 1.16512,-1.032933 2.75738,2.747996 c 1.51657,1.511401 2.75738,2.926498 2.75738,3.144663 0,0.218168 -2.14312,5.76218 -4.7625,12.320031 -2.61937,6.557851 -4.7625,12.053975 -4.7625,12.213608 0,0.159634 0.15325,0.349047 0.34055,0.420918 0.18727,0.07187 5.78657,-1.820391 12.44285,-4.205025 6.65631,-2.384637 12.32884,-4.335701 12.60565,-4.335701 0.49138,0 5.43491,5.049422 5.43491,5.551342 0,0.251172 -26.59372,26.198657 -26.85113,26.198657 -0.0805,0 -1.31226,-1.170353 -2.73733,-2.600785 z m -32.6658,-31.552107 c -3.42625,-2.566452 -3.51319,-2.656286 -3.37756,-3.489129 0.38491,-2.363292 1.2202,-13.661386 1.07005,-14.473268 -0.2849,-1.540412 -0.903,-2.567898 -2.00356,-3.330594 -0.95821,-0.664048 -1.07897,-0.688371 -1.50188,-0.302527 -0.25291,0.230767 -2.18628,2.80157 -4.29633,5.712894 -2.11005,2.911324 -3.93192,5.29953 -4.04857,5.307126 -0.36383,0.02368 -6.03361,-4.268295 -5.95127,-4.505071 0.0429,-0.123357 5.06695,-7.012037 11.16459,-15.30818 l 11.08662,-15.0838948 1.3488,0.9755081 c 7.14182,5.1652697 10.609,7.9193517 11.67585,9.2745157 1.76879,2.246741 2.3518,3.926004 2.36336,6.807216 0.009,2.193224 -0.0641,2.536737 -0.89786,4.233333 -1.87703,3.819281 -5.13279,6.131263 -9.01303,6.400366 -1.36171,0.09444 -2.08971,0.268679 -2.31651,0.554437 -0.18727,0.235968 -0.33274,1.169429 -0.33538,2.152086 -0.003,0.954453 -0.23861,4.950055 -0.52451,8.879117 -0.28591,3.929063 -0.52195,7.530703 -0.52451,8.003646 -0.003,0.472942 -0.094,0.852426 -0.2031,0.843298 -0.10914,-0.0091 -1.78099,-1.202026 -3.7152,-2.650879 z m 7.77415,-25.346132 c 1.98474,-1.551196 2.49584,-3.861249 1.2515,-5.656799 -0.76287,-1.100849 -4.48384,-3.973163 -4.95707,-3.826515 -0.55856,0.173087 -4.89389,6.142423 -4.83944,6.663441 0.0611,0.58488 2.15498,2.302853 3.75846,3.083745 1.43806,0.700333 3.71334,0.574902 4.78655,-0.263872 z m -45.48912,0.116822 c -5.06945,-2.813844 -9.31826,-5.218888 -9.44179,-5.344541 -0.1882,-0.191442 17.30854,-32.321394 17.95071,-32.963552 0.17166,-0.171655 17.62614,9.1789506 18.38393,9.8485184 0.19373,0.171188 -2.81336,5.9443088 -3.23059,6.202169 -0.0978,0.060428 -2.614,-1.2481638 -5.59165,-2.9079823 -2.97762,-1.65982115 -5.66877,-3.0204726 -5.98032,-3.0236714 -0.44945,-0.0046 -0.90292,0.6024271 -2.19557,2.93913437 -0.89601,1.61972353 -1.5921,3.13712213 -1.54686,3.37199803 0.047,0.2440622 2.28997,1.6416495 5.23455,3.2616403 2.83379,1.5590281 5.17998,2.9288926 5.21377,3.0441476 0.11057,0.377156 -3.2634,6.031965 -3.56227,5.970407 -0.16015,-0.03299 -2.57196,-1.32911 -5.35959,-2.880275 -5.94693,-3.309167 -5.15731,-3.428989 -7.67072,1.163987 -1.33164,2.433441 -1.57458,3.058003 -1.31238,3.373932 0.17695,0.213233 2.92637,1.824143 6.10978,3.579802 3.18342,1.755658 5.78803,3.282709 5.78803,3.393447 0,0.347554 -3.20961,6.114143 -3.3953,6.100188 -0.0971,-0.0073 -4.32429,-2.315506 -9.39373,-5.129349 z M 286.03348,12.396503 c -4.36563,-1.800373 -8.02934,-3.3102128 -8.14158,-3.3552026 -0.18896,-0.075742 13.67748,-34.4949064 14.07504,-34.9369554 0.24292,-0.270078 6.89883,2.43284 6.89883,2.80156 0,0.161408 -2.51973,6.473497 -5.59943,14.0268645 -4.26157,10.452114 -5.53596,13.834026 -5.33376,14.1545713 0.14613,0.231648 2.81469,1.4571794 5.93016,2.7234064 3.11546,1.2662244 5.84067,2.4121768 6.05599,2.5465618 0.33271,0.207647 0.23969,0.627864 -0.61947,2.798577 l -1.01094,2.554245 -2.15866,-0.02011 c -2.14006,-0.01995 -2.22718,-0.04836 -10.09618,-3.293515 z m -26.9875,-8.8635336 c -6.46623,-1.3530236 -10.93026,-4.5630754 -13.3336,-9.5881265 -1.32284,-2.7658429 -1.71214,-4.6522239 -1.67841,-8.1326269 0.0647,-6.669731 3.17532,-13.373075 7.83669,-16.887807 1.77218,-1.336233 4.71043,-2.778952 6.77844,-3.328303 0.80037,-0.21261 1.27662,-0.408092 1.05834,-0.434404 -0.90652,-0.109273 1.86166,-0.485656 3.57187,-0.485656 1.69177,0 4.50538,0.379087 3.57188,0.481253 -0.21828,0.02389 0.68738,0.323747 2.0126,0.666351 4.0961,1.058957 8.83531,3.574332 8.83531,4.689415 0,0.559876 -1.76577,7.363531 -1.96202,7.559767 -0.0717,0.07174 -0.93797,-0.598386 -1.92494,-1.489177 -4.89218,-4.415352 -11.16719,-5.553328 -15.7648,-2.858946 -3.3913,1.987423 -5.85833,6.593587 -6.19533,11.567131 -0.31197,4.604318 1.64359,8.2365699 5.48159,10.1814187 3.13991,1.5911221 7.56798,1.9491298 11.30556,0.9140534 1.20166,-0.332785 2.24121,-0.5486903 2.3101,-0.4797901 0.0689,0.0689 -0.31895,1.7844716 -0.86193,3.81237839 l -0.98719,3.68710621 -1.19062,0.3094354 c -1.82229,0.4736015 -6.15162,0.3839845 -8.86354,-0.1834726 z"
         id="path3821"
         inkscape:connector-curvature="0" />
    </g>
  </g>
</svg>
